<svg xmlns="http://www.w3.org/2000/svg" width="24" height="22" fill="none" viewBox="0 0 24 22"><g stroke="#274f45" stroke-linecap="round" stroke-linejoin="round" stroke-width="2" clip-path="url(#a)"><path d="M19.5 2.333h-15a1.5 1.5 0 0 0-1.5 1.5v15a1.5 1.5 0 0 0 1.5 1.5h15a1.5 1.5 0 0 0 1.5-1.5v-15a1.5 1.5 0 0 0-1.5-1.5"/><path d="M10.25 13.333v-3.031l2.625 1.515 2.625 1.516-2.625 1.515-2.625 1.516zM3 6.833h18m-4.5-4.5-3 4.5m-3-4.5-3 4.5"/></g><defs><clipPath id="a"><path fill="#fff" d="M0 .333h24v21.333H0z"/></clipPath></defs></svg>