<svg xmlns="http://www.w3.org/2000/svg" width="24" height="24" fill="none" viewBox="0 0 24 24"><path stroke="#77978f" stroke-linecap="round" stroke-linejoin="round" stroke-width="2" d="M5 22h14a1 1 0 0 0 1-1V7h-5V2H5a1 1 0 0 0-1 1v18a1 1 0 0 0 1 1"/><path stroke="#77978f" stroke-linecap="round" stroke-linejoin="round" stroke-width="2" d="M12 15.5V14c1.105 0 2-1.007 2-2.25s-.895-2.25-2-2.25-2 1.007-2 2.25"/><path fill="#77978f" stroke="#77978f" stroke-width=".5" d="M12 17.25a1 1 0 1 1 0 2 1 1 0 0 1 0-2Z"/></svg>