<svg xmlns="http://www.w3.org/2000/svg" width="24" height="24" fill="none" viewBox="0 0 24 24"><path stroke="#77978f" stroke-linecap="round" stroke-linejoin="round" stroke-width="2" d="M5.333 19H12m-6.667 0c-1.098 0-1.674-.015-2.12-.254a2.3 2.3 0 0 1-.97-1.02C2 17.225 2 16.573 2 15.265v-6.53c0-1.307 0-1.961.242-2.46a2.28 2.28 0 0 1 .971-1.02C3.688 5 4.311 5 5.556 5h12.889c1.244 0 1.866 0 2.341.254.418.224.759.58.972 1.02C22 6.772 22 7.425 22 8.73v6.54c0 1.305 0 1.957-.242 2.455a2.3 2.3 0 0 1-.972 1.02C20.311 19 19.69 19 18.448 19H12m-6.667 0c0-1.289 1.493-2.333 3.334-2.333S12 17.71 12 19m-6.667 0q0 0 0 0m13.334-4.667h-4.445m4.445-3.5h-3.334m-6.666 2.334c-1.228 0-2.223-1.045-2.223-2.334 0-1.288.995-2.333 2.223-2.333s2.222 1.045 2.222 2.333-.995 2.334-2.222 2.334"/></svg>